# This file uses centimeters as units for non-parametric coordinates.

mtllib Wall_LP.mtl
g default
v -1.000000 0.000000 0.000000
v -0.500000 0.000000 0.000000
v 0.000000 0.000000 0.000000
v -1.000000 1.000000 0.000000
v -0.500000 1.000000 0.000000
v 0.000000 0.600000 0.000000
v -1.000000 1.000000 -3.000000
v -0.500000 1.000000 -3.000000
v 0.000000 0.600000 -3.000000
v -1.000000 0.000000 -3.000000
v -0.500000 0.000000 -3.000000
v 0.000000 0.000000 -3.000000
vt 0.549364 0.020988
vt 0.471091 0.021008
vt 0.784182 0.020931
vt 0.705909 0.020950
vt 0.392818 0.021027
vt 0.884420 0.020906
vt 0.290191 0.193083
vt 0.368464 0.193027
vt 0.884535 0.490542
vt 0.471206 0.490644
vt 0.549479 0.490625
vt 0.978462 0.490519
vt 0.368324 0.203624
vt 0.368312 0.297551
vt 0.211779 0.203603
vt 0.211757 0.360148
vt 0.290030 0.360159
vt 0.290052 0.203613
vt 0.211874 0.130521
vt 0.211807 0.036594
vt 0.290079 0.036538
vt 0.784297 0.490567
vt 0.706024 0.490586
vt 0.368352 0.036482
vt 0.392933 0.490663
vt 0.978347 0.020883
vn 0.000000 0.000000 1.000000
vn 0.000000 0.000000 1.000000
vn 0.000000 0.000000 1.000000
vn 0.000000 0.000000 1.000000
vn 0.000000 0.000000 1.000000
vn 0.000000 0.000000 1.000000
vn 0.000000 1.000000 0.000000
vn 0.371391 0.928477 0.000000
vn 0.371391 0.928477 0.000000
vn 0.000000 1.000000 0.000000
vn 0.624695 0.780869 0.000000
vn 0.624695 0.780869 0.000000
vn 0.000000 0.000000 -1.000000
vn 0.000000 0.000000 -1.000000
vn 0.000000 0.000000 -1.000000
vn 0.000000 0.000000 -1.000000
vn 0.000000 0.000000 -1.000000
vn 0.000000 0.000000 -1.000000
vn 0.000000 -1.000000 0.000000
vn 0.000000 -1.000000 0.000000
vn 0.000000 -1.000000 0.000000
vn 0.000000 -1.000000 0.000000
vn 0.000000 -1.000000 0.000000
vn 0.000000 -1.000000 0.000000
vn 1.000000 0.000000 0.000000
vn 1.000000 0.000000 0.000000
vn 1.000000 0.000000 0.000000
vn 1.000000 0.000000 0.000000
vn -1.000000 0.000000 0.000000
vn -1.000000 0.000000 0.000000
vn -1.000000 0.000000 0.000000
vn -1.000000 0.000000 0.000000
s 1
g Wall_LP
usemtl initialShadingGroup
f 1/15/1 2/18/2 5/17/3 4/16/4
f 2/18/2 3/13/5 6/14/6 5/17/3
s 2
f 4/4/7 5/3/8 8/22/9 7/23/10
f 5/3/8 6/6/11 9/9/12 8/22/9
s 3
f 7/8/13 8/7/14 11/21/15 10/24/16
f 8/7/14 9/19/17 12/20/18 11/21/15
s 4
f 10/11/19 11/10/20 2/2/21 1/1/22
f 11/10/20 12/25/23 3/5/24 2/2/21
s off
f 3/26/25 12/12/26 9/9/27 6/6/28
f 10/11/29 1/1/30 4/4/31 7/23/32
