# This file uses centimeters as units for non-parametric coordinates.

mtllib Inside_Bend_LP.mtl
g default
v 1.364466 0.000000 -1.619729
v 1.121042 0.000000 -1.941147
v 0.868330 0.000000 -2.277869
v 1.363128 1.000000 -1.622675
v 1.121845 1.000000 -1.942554
v 0.869629 0.600000 -2.284467
v 2.998921 1.000000 -2.005395
v 2.999442 1.000000 -2.503258
v 2.999811 0.600000 -3.000945
v 2.998921 0.000000 -2.005395
v 2.999435 0.000000 -2.503295
v 2.999820 0.000000 -3.000900
v 0.989951 0.000000 -0.001827
v 0.496055 0.000000 -0.000717
v 0.000000 0.000000 0.000000
v 0.989951 1.000000 -0.001827
v 0.496055 1.000000 -0.000717
v 0.000000 0.600000 0.000000
v 1.041581 1.000000 -0.934141
v 1.041418 0.000000 -0.933387
v 0.641262 0.000000 -1.104059
v 0.212284 0.000000 -1.263462
v 0.214656 0.600000 -1.260277
v 0.640918 1.000000 -1.105750
v 0.993306 1.000000 -0.470885
v 0.993116 0.000000 -0.470922
v 0.523280 0.000000 -0.559077
v 0.048100 0.000000 -0.647149
v 0.048125 0.600000 -0.647145
v 0.523833 1.000000 -0.558987
v 1.150707 0.000000 -1.315627
v 1.149586 1.000000 -1.317991
v 0.835822 1.000000 -1.568602
v 0.500301 0.600000 -1.823207
v 0.501220 0.000000 -1.819854
v 0.835858 0.000000 -1.566746
v 2.103108 1.000000 -1.976876
v 2.103216 0.000000 -1.976713
v 2.003090 0.000000 -2.410670
v 1.891167 0.000000 -2.845273
v 1.890980 0.600000 -2.845580
v 2.001805 1.000000 -2.412297
v 1.692018 1.000000 -1.848127
v 1.692131 0.000000 -1.847482
v 1.544469 0.000000 -2.230586
v 1.382587 0.000000 -2.627701
v 1.393673 0.600000 -2.630298
v 1.543247 1.000000 -2.233941
v 2.544066 0.000000 -2.009701
v 2.544085 1.000000 -2.009677
v 2.472219 1.000000 -2.484782
v 2.398068 0.600000 -2.966021
v 2.398092 0.000000 -2.965900
v 2.472209 0.000000 -2.484835
v 0.986747 1.000000 -0.233920
v 0.986682 0.000000 -0.233963
v 0.499907 0.000000 -0.278866
v 0.011493 0.000000 -0.326206
v 0.011695 0.600000 -0.326169
v 0.499907 1.000000 -0.278866
v 1.010883 0.000000 -0.708356
v 1.011363 1.000000 -0.708379
v 0.567468 1.000000 -0.838691
v 0.114565 0.600000 -0.957901
v 0.113637 0.000000 -0.959089
v 0.567302 0.000000 -0.837950
v 1.085280 1.000000 -1.136934
v 1.085727 0.000000 -1.135319
v 0.735090 0.000000 -1.346514
v 0.351707 0.000000 -1.553109
v 0.351565 0.600000 -1.553452
v 0.734407 1.000000 -1.348876
v 1.242612 0.000000 -1.476731
v 1.241027 1.000000 -1.479479
v 0.960989 1.000000 -1.765434
v 0.662890 0.600000 -2.066124
v 0.663140 0.000000 -2.061148
v 0.960242 0.000000 -1.764039
v 1.513808 1.000000 -1.747347
v 1.515656 0.000000 -1.743891
v 1.319130 0.000000 -2.098191
v 1.114963 0.000000 -2.468845
v 1.120193 0.600000 -2.474296
v 1.319228 1.000000 -2.100286
v 1.891096 0.000000 -1.924229
v 1.890788 1.000000 -1.924760
v 1.774474 1.000000 -2.339896
v 1.651949 0.600000 -2.752003
v 1.647299 0.000000 -2.751857
v 1.777805 0.000000 -2.335119
v 2.323623 1.000000 -2.002685
v 2.323604 0.000000 -2.002707
v 2.230780 0.000000 -2.456433
v 2.135877 0.000000 -2.914913
v 2.135761 0.600000 -2.915155
v 2.230788 1.000000 -2.456394
v 2.770343 0.000000 -2.009156
v 2.770343 1.000000 -2.009156
v 2.728458 1.000000 -2.500718
v 2.685554 0.600000 -2.994665
v 2.685574 0.000000 -2.994562
v 2.728447 0.000000 -2.500771
vt 0.549364 0.513993
vt 0.471091 0.514012
vt 0.784182 0.513935
vt 0.705909 0.513955
vt 0.392818 0.514031
vt 0.884420 0.513911
vt 0.290191 0.686088
vt 0.368464 0.686032
vt 0.884535 0.983547
vt 0.471206 0.983649
vt 0.549479 0.983629
vt 0.978462 0.983524
vt 0.211874 0.623526
vt 0.211807 0.529598
vt 0.290079 0.529542
vt 0.784297 0.983572
vt 0.706024 0.983591
vt 0.368352 0.529486
vt 0.392933 0.983668
vt 0.978347 0.513888
vt 0.211779 0.203603
vt 0.290052 0.203613
vt 0.290030 0.360159
vt 0.211757 0.360148
vt 0.368324 0.203624
vt 0.368312 0.297551
vt 0.705909 0.020950
vt 0.784182 0.020931
vt 0.784297 0.490567
vt 0.706024 0.490586
vt 0.884420 0.020906
vt 0.884535 0.490542
vt 0.549479 0.490625
vt 0.471206 0.490644
vt 0.471091 0.021008
vt 0.549364 0.020988
vt 0.392933 0.490663
vt 0.392818 0.021027
vt 0.978347 0.020883
vt 0.978462 0.490519
vt 0.705967 0.255768
vt 0.549421 0.255807
vt 0.471149 0.255826
vt 0.392876 0.255845
vt 0.978405 0.255701
vt 0.884477 0.255724
vt 0.784240 0.255749
vt 0.705938 0.138359
vt 0.549393 0.138398
vt 0.471120 0.138417
vt 0.392847 0.138436
vt 0.978376 0.138292
vt 0.884449 0.138315
vt 0.784211 0.138340
vt 0.549450 0.373216
vt 0.705996 0.373177
vt 0.784268 0.373158
vt 0.884506 0.373133
vt 0.392905 0.373254
vt 0.978434 0.373110
vt 0.471177 0.373235
vt 0.705967 0.748773
vt 0.549421 0.748811
vt 0.471149 0.748830
vt 0.392876 0.748850
vt 0.978405 0.748706
vt 0.884477 0.748729
vt 0.784240 0.748753
vt 0.705938 0.631364
vt 0.549393 0.631402
vt 0.471120 0.631421
vt 0.392847 0.631440
vt 0.978376 0.631297
vt 0.884449 0.631320
vt 0.784211 0.631344
vt 0.549450 0.866220
vt 0.705996 0.866182
vt 0.784268 0.866163
vt 0.884506 0.866138
vt 0.392905 0.866259
vt 0.978434 0.866115
vt 0.471177 0.866239
vt 0.705923 0.079655
vt 0.549378 0.079693
vt 0.471105 0.079712
vt 0.392833 0.079731
vt 0.978362 0.079588
vt 0.884434 0.079611
vt 0.784196 0.079635
vt 0.549407 0.197102
vt 0.705952 0.197064
vt 0.784225 0.197044
vt 0.884463 0.197020
vt 0.392861 0.197140
vt 0.978390 0.196997
vt 0.471134 0.197121
vt 0.705981 0.314473
vt 0.549436 0.314511
vt 0.471163 0.314530
vt 0.392890 0.314549
vt 0.978419 0.314406
vt 0.884492 0.314429
vt 0.784254 0.314453
vt 0.549464 0.431920
vt 0.706010 0.431882
vt 0.784283 0.431863
vt 0.884521 0.431838
vt 0.392919 0.431958
vt 0.978448 0.431815
vt 0.471192 0.431939
vt 0.705923 0.572659
vt 0.549378 0.572698
vt 0.471105 0.572717
vt 0.392833 0.572736
vt 0.978362 0.572592
vt 0.884434 0.572615
vt 0.784196 0.572640
vt 0.549407 0.690107
vt 0.705952 0.690068
vt 0.784225 0.690049
vt 0.884463 0.690024
vt 0.392861 0.690145
vt 0.978390 0.690001
vt 0.471134 0.690126
vt 0.705981 0.807477
vt 0.549436 0.807516
vt 0.471163 0.807535
vt 0.392890 0.807554
vt 0.978419 0.807410
vt 0.884492 0.807433
vt 0.784254 0.807458
vt 0.549464 0.924925
vt 0.706010 0.924886
vt 0.784283 0.924867
vt 0.884521 0.924842
vt 0.392919 0.924963
vt 0.978448 0.924819
vt 0.471192 0.924944
vn 0.000000 1.000000 0.000000
vn 0.000000 1.000000 0.000000
vn -0.272422 0.874555 -0.401174
vn -0.289180 0.881739 -0.372707
vn -0.382894 0.725578 -0.571777
vn -0.422172 0.725061 -0.544112
vn 0.999999 -0.000004 0.001041
vn 0.999999 -0.000004 0.001041
vn 1.000000 -0.000002 0.000914
vn 1.000000 -0.000002 0.000952
vn 1.000000 0.000001 0.000756
vn 1.000000 0.000001 0.000756
vn 0.000000 -1.000000 0.000000
vn 0.000000 -1.000000 0.000000
vn 0.000000 -1.000000 0.000000
vn 0.000000 -1.000000 0.000000
vn 0.000000 -1.000000 0.000000
vn 0.000000 -1.000000 0.000000
vn -0.608044 -0.004664 -0.793890
vn -0.608043 -0.004664 -0.793890
vn -0.556205 -0.001793 -0.831043
vn -0.557028 -0.001838 -0.830492
vn 0.568058 0.002871 0.822983
vn 0.636062 0.003483 0.771630
vn 0.636062 0.003483 0.771630
vn 0.568098 0.002871 0.822956
vn 0.002247 0.000000 0.999997
vn 0.002247 0.000000 0.999997
vn 0.001996 0.000000 0.999998
vn 0.001890 0.000000 0.999998
vn 0.001446 0.000000 0.999999
vn 0.001446 0.000000 0.999999
vn 0.000000 1.000000 0.000000
vn 0.000000 1.000000 0.000000
vn -0.410298 0.911595 -0.025486
vn -0.406319 0.913672 -0.010453
vn -0.631305 0.774502 -0.040015
vn -0.630182 0.776278 -0.016212
vn 0.000000 -1.000000 0.000000
vn 0.000000 -1.000000 0.000000
vn 0.000000 -1.000000 0.000000
vn 0.000000 -1.000000 0.000000
vn 0.000000 -1.000000 0.000000
vn 0.000000 -1.000000 0.000000
vn -0.999369 0.000169 -0.035521
vn -0.999369 0.000169 -0.035521
vn -0.997248 0.000180 -0.074140
vn -0.997248 0.000180 -0.074142
vn 0.999976 -0.000081 0.006949
vn 0.999903 -0.000032 -0.013945
vn 0.999903 -0.000032 -0.013945
vn 0.999976 -0.000081 0.006950
vn 0.761031 0.002959 0.648709
vn 0.761031 0.002959 0.648709
vn 0.818455 0.002713 0.574564
vn 0.818547 0.002713 0.574432
vn 0.000000 -1.000000 0.000000
vn 0.000000 -1.000000 0.000000
vn 0.000000 -1.000000 0.000000
vn 0.000000 -1.000000 0.000000
vn 0.000000 -1.000000 0.000000
vn 0.000000 -1.000000 0.000000
vn -0.780228 -0.005366 -0.625472
vn -0.726137 -0.005998 -0.687524
vn -0.726137 -0.005998 -0.687524
vn -0.780643 -0.005361 -0.624954
vn -0.389084 0.870279 -0.302040
vn -0.374144 0.859691 -0.347777
vn -0.504952 0.724375 -0.469367
vn -0.540342 0.724397 -0.428112
vn 0.000000 1.000000 0.000000
vn 0.000000 1.000000 0.000000
vn 0.985213 0.000047 0.171332
vn 0.994602 -0.000302 0.103764
vn 0.994602 -0.000302 0.103761
vn 0.985220 0.000046 0.171293
vn 0.000000 -1.000000 0.000000
vn 0.000000 -1.000000 0.000000
vn 0.000000 -1.000000 0.000000
vn 0.000000 -1.000000 0.000000
vn 0.000000 -1.000000 0.000000
vn 0.000000 -1.000000 0.000000
vn -0.965684 0.002369 -0.259711
vn -0.928727 0.003225 -0.370749
vn -0.928624 0.003223 -0.371008
vn -0.965657 0.002372 -0.259811
vn -0.419913 0.901798 -0.102141
vn -0.425847 0.891386 -0.155196
vn -0.622370 0.749151 -0.226779
vn -0.630609 0.760657 -0.154052
vn 0.000000 1.000000 0.000000
vn 0.000000 1.000000 0.000000
vn 0.962033 0.000882 0.272932
vn 0.962065 0.000881 0.272819
vn 0.000000 1.000000 0.000000
vn -0.429414 0.880584 -0.200437
vn -0.613716 0.735223 -0.287749
vn -0.889630 0.000273 -0.456682
vn -0.889638 0.000274 -0.456667
vn 0.000000 -1.000000 0.000000
vn 0.000000 -1.000000 0.000000
vn 0.000000 -1.000000 0.000000
vn -0.016453 0.000000 0.999865
vn -0.016453 0.000000 0.999865
vn -0.009440 -0.000006 0.999956
vn -0.009440 -0.000006 0.999956
vn 0.000000 -1.000000 0.000000
vn 0.000000 -1.000000 0.000000
vn 0.000000 -1.000000 0.000000
vn 0.000000 -1.000000 0.000000
vn 0.000000 -1.000000 0.000000
vn 0.000000 -1.000000 0.000000
vn -0.058006 -0.000155 -0.998316
vn -0.020072 -0.000123 -0.999799
vn -0.020072 -0.000123 -0.999799
vn -0.058004 -0.000155 -0.998316
vn -0.018742 0.914864 -0.403327
vn -0.006045 0.916012 -0.401106
vn -0.009459 0.778464 -0.627618
vn -0.030027 0.777013 -0.628768
vn 0.000000 1.000000 0.000000
vn 0.000000 1.000000 0.000000
vn 0.177862 0.000230 0.984055
vn 0.299391 0.000505 0.954130
vn 0.299381 0.000505 0.954134
vn 0.177856 0.000230 0.984057
vn 0.000000 -1.000000 0.000000
vn 0.000000 -1.000000 0.000000
vn 0.000000 -1.000000 0.000000
vn 0.000000 -1.000000 0.000000
vn 0.000000 -1.000000 0.000000
vn 0.000000 -1.000000 0.000000
vn -0.395127 0.002315 -0.918624
vn -0.318054 0.000248 -0.948073
vn -0.318047 0.000248 -0.948075
vn -0.395422 0.002326 -0.918497
vn -0.172849 0.891980 -0.417726
vn -0.122952 0.902219 -0.413381
vn -0.188551 0.746276 -0.638373
vn -0.257337 0.733115 -0.629539
vn 0.000000 1.000000 0.000000
vn 0.000000 1.000000 0.000000
vn 0.074397 0.000026 0.997229
vn 0.074398 0.000026 0.997229
vn 0.000000 1.000000 0.000000
vn -0.080017 0.909707 -0.407469
vn -0.125382 0.760392 -0.637246
vn -0.231293 -0.000412 -0.972884
vn -0.231288 -0.000412 -0.972885
vn 0.000000 -1.000000 0.000000
vn 0.000000 -1.000000 0.000000
vn 0.000000 -1.000000 0.000000
vn 0.998679 -0.000232 0.051382
vn 0.998679 -0.000232 0.051382
vn 0.000000 -1.000000 0.000000
vn 0.000000 -1.000000 0.000000
vn 0.000000 -1.000000 0.000000
vn -0.987113 0.000585 -0.160027
vn -0.987113 0.000585 -0.160027
vn -0.411880 0.909367 -0.058372
vn -0.632710 0.769048 -0.090791
vn 0.000000 1.000000 0.000000
vn 0.909451 0.001923 0.415807
vn 0.909528 0.001922 0.415639
vn 0.000000 -1.000000 0.000000
vn 0.000000 -1.000000 0.000000
vn 0.000000 -1.000000 0.000000
vn -0.853598 -0.003447 -0.520921
vn -0.853707 -0.003441 -0.520742
vn -0.425150 0.871591 -0.244085
vn -0.595058 0.725144 -0.346514
vn 0.000000 1.000000 0.000000
vn 0.429393 0.001433 0.903117
vn 0.429408 0.001433 0.903109
vn 0.000000 -1.000000 0.000000
vn 0.000000 -1.000000 0.000000
vn 0.000000 -1.000000 0.000000
vn -0.465729 0.002243 -0.884925
vn -0.466633 0.002214 -0.884448
vn -0.219955 0.881855 -0.417074
vn -0.317507 0.726361 -0.609581
vn 0.000000 1.000000 0.000000
vn 0.014459 -0.000017 0.999896
vn 0.014459 -0.000017 0.999895
vn 0.000000 -1.000000 0.000000
vn 0.000000 -1.000000 0.000000
vn 0.000000 -1.000000 0.000000
vn -0.143265 -0.000252 -0.989684
vn -0.143264 -0.000252 -0.989685
vn -0.047276 0.913610 -0.403834
vn -0.074823 0.771228 -0.632146
vn 0.000000 1.000000 0.000000
s 1
g Inside_Bend_LP
usemtl initialShadingGroup
f 4/4/1 79/111/2 84/117/3 5/3/4
f 5/3/4 84/117/3 83/116/5 6/6/6
s 2
f 7/8/7 10/18/8 11/15/9 8/7/10
f 8/7/10 11/15/9 12/14/11 9/13/12
s 3
f 80/112/13 1/1/14 2/2/15 81/113/16
f 81/113/16 2/2/15 3/5/17 82/114/18
s 4
f 3/20/19 6/6/20 83/116/21 82/115/22
s 5
f 79/111/23 4/4/24 1/1/25 80/112/26
s 6
f 13/21/27 16/24/28 17/23/29 14/22/30
f 14/22/30 17/23/29 18/26/31 15/25/32
s 7
f 16/27/33 55/83/34 60/89/35 17/28/36
f 17/28/36 60/89/35 59/88/37 18/31/38
s 8
f 56/84/39 13/36/40 14/35/41 57/85/42
f 57/85/42 14/35/41 15/38/43 58/86/44
s 9
f 15/39/45 18/31/46 59/88/47 58/87/48
s 10
f 55/83/49 16/27/50 13/36/51 56/84/52
f 1/33/53 4/30/54 74/105/55 73/104/56
s 8
f 1/33/57 73/104/58 78/110/59 2/34/60
f 2/34/60 78/110/59 77/108/61 3/37/62
s 9
f 76/107/63 6/32/64 3/40/65 77/109/66
s 7
f 75/106/67 5/29/68 6/32/69 76/107/70
f 74/105/71 4/30/72 5/29/68 75/106/67
s 10
f 19/41/73 62/91/74 61/90/75 20/42/76
s 8
f 20/42/77 61/90/78 66/96/79 21/43/80
f 21/43/80 66/96/79 65/94/81 22/44/82
s 9
f 64/93/83 23/46/84 22/45/85 65/95/86
s 7
f 63/92/87 24/47/88 23/46/89 64/93/90
f 62/91/91 19/41/92 24/47/88 63/92/87
s 10
f 67/97/93 19/41/73 20/42/76 68/98/94
s 7
f 19/41/92 67/97/95 72/103/96 24/47/88
f 24/47/88 72/103/96 71/102/97 23/46/89
s 9
f 23/46/84 71/102/98 70/101/99 22/45/85
s 8
f 69/99/100 21/43/80 22/44/82 70/100/101
f 68/98/102 20/42/77 21/43/80 69/99/100
s 5
f 10/11/103 7/17/104 98/133/105 97/132/106
s 3
f 10/11/107 97/132/108 102/138/109 11/10/110
f 11/10/110 102/138/109 101/136/111 12/19/112
s 4
f 100/135/113 9/9/114 12/12/115 101/137/116
s 1
f 99/134/117 8/16/118 9/9/119 100/135/120
f 98/133/121 7/17/122 8/16/118 99/134/117
s 5
f 37/62/123 86/119/124 85/118/125 38/63/126
s 3
f 38/63/127 85/118/128 90/124/129 39/64/130
f 39/64/130 90/124/129 89/122/131 40/65/132
s 4
f 88/121/133 41/67/134 40/66/135 89/123/136
s 1
f 87/120/137 42/68/138 41/67/139 88/121/140
f 86/119/141 37/62/142 42/68/138 87/120/137
s 5
f 91/125/143 37/62/123 38/63/126 92/126/144
s 1
f 37/62/142 91/125/145 96/131/146 42/68/138
f 42/68/138 96/131/146 95/130/147 41/67/139
s 4
f 41/67/134 95/130/148 94/129/149 40/66/135
s 3
f 93/127/150 39/64/130 40/65/132 94/128/151
f 92/126/152 38/63/127 39/64/130 93/127/150
s 10
f 25/48/153 55/83/49 56/84/52 26/49/154
s 8
f 26/49/155 56/84/39 57/85/42 27/50/156
f 27/50/156 57/85/42 58/86/44 28/51/157
s 9
f 59/88/47 29/53/158 28/52/159 58/87/48
s 7
f 60/89/35 30/54/160 29/53/161 59/88/37
f 55/83/34 25/48/162 30/54/160 60/89/35
s 10
f 62/91/74 25/48/153 26/49/154 61/90/75
s 7
f 25/48/162 62/91/91 63/92/87 30/54/160
f 30/54/160 63/92/87 64/93/90 29/53/161
s 9
f 29/53/158 64/93/83 65/95/86 28/52/159
s 8
f 66/96/79 27/50/156 28/51/157 65/94/81
f 61/90/78 26/49/155 27/50/156 66/96/79
s 10
f 32/56/163 67/97/93 68/98/94 31/55/164
s 8
f 31/55/165 68/98/102 69/99/100 36/61/166
f 36/61/166 69/99/100 70/100/101 35/59/167
s 9
f 71/102/98 34/58/168 35/60/169 70/101/99
s 7
f 72/103/96 33/57/170 34/58/171 71/102/97
f 67/97/95 32/56/172 33/57/170 72/103/96
s 10
f 74/105/55 32/56/163 31/55/164 73/104/56
s 7
f 32/56/172 74/105/71 75/106/67 33/57/170
f 33/57/170 75/106/67 76/107/70 34/58/171
s 9
f 34/58/168 76/107/63 77/109/66 35/60/169
s 8
f 78/110/59 36/61/166 35/59/167 77/108/61
f 73/104/58 31/55/165 36/61/166 78/110/59
s 5
f 43/69/173 79/111/23 80/112/26 44/70/174
s 3
f 44/70/175 80/112/13 81/113/16 45/71/176
f 45/71/176 81/113/16 82/114/18 46/72/177
s 4
f 83/116/21 47/74/178 46/73/179 82/115/22
s 1
f 84/117/3 48/75/180 47/74/181 83/116/5
f 79/111/2 43/69/182 48/75/180 84/117/3
s 5
f 86/119/124 43/69/173 44/70/174 85/118/125
s 1
f 43/69/182 86/119/141 87/120/137 48/75/180
f 48/75/180 87/120/137 88/121/140 47/74/181
s 4
f 47/74/178 88/121/133 89/123/136 46/73/179
s 3
f 90/124/129 45/71/176 46/72/177 89/122/131
f 85/118/128 44/70/175 45/71/176 90/124/129
s 5
f 50/77/183 91/125/143 92/126/144 49/76/184
s 3
f 49/76/185 92/126/152 93/127/150 54/82/186
f 54/82/186 93/127/150 94/128/151 53/80/187
s 4
f 95/130/148 52/79/188 53/81/189 94/129/149
s 1
f 96/131/146 51/78/190 52/79/191 95/130/147
f 91/125/145 50/77/192 51/78/190 96/131/146
s 5
f 98/133/105 50/77/183 49/76/184 97/132/106
s 1
f 50/77/192 98/133/121 99/134/117 51/78/190
f 51/78/190 99/134/117 100/135/120 52/79/191
s 4
f 52/79/188 100/135/113 101/137/116 53/81/189
s 3
f 102/138/109 54/82/186 53/80/187 101/136/111
f 97/132/108 49/76/185 54/82/186 102/138/109
