# This file uses centimeters as units for non-parametric coordinates.

mtllib Outside_Corner_LP.mtl
g default
v -1.000000 0.000000 -4.000000
v -0.500000 0.000000 -3.500000
v 0.000000 0.000000 -3.000000
v -1.000000 1.000000 -4.000000
v -0.500000 1.000000 -3.500000
v 0.000000 0.600000 -3.000000
v 3.000000 1.000000 -4.000000
v 3.000000 1.000000 -3.500000
v 3.000000 0.600000 -3.000000
v 3.000000 0.000000 -4.000000
v 3.000000 0.000000 -3.500000
v 3.000000 0.000000 -3.000000
v -1.000000 0.000000 0.000000
v -0.500000 0.000000 0.000000
v 0.000000 0.000000 0.000000
v -1.000000 1.000000 0.000000
v -0.500000 1.000000 0.000000
v 0.000000 0.600000 0.000000
vt 0.455232 0.764785
vt 0.520439 0.830244
vt 0.632002 0.274589
vt 0.697335 0.274708
vt 0.585610 0.914037
vt 0.015334 0.415595
vt 0.017527 0.070603
vt 0.017112 0.135935
vt 0.014836 0.493993
vt 0.520944 0.568913
vt 0.455485 0.634119
vt 0.585459 0.992437
vt 0.978148 0.635130
vt 0.978274 0.569797
vt 0.977769 0.831128
vt 0.977895 0.765795
vt 0.978401 0.504464
vt 0.977607 0.914795
vt 0.424516 0.651339
vt 0.424200 0.729738
vt 0.293851 0.650813
vt 0.293324 0.781478
vt 0.358656 0.781741
vt 0.359183 0.651076
vt 0.566764 0.222204
vt 0.566907 0.143804
vt 0.016281 0.266598
vt 0.697573 0.144043
vt 0.632240 0.143923
vt 0.015866 0.331930
vt 0.406826 0.496485
vt 0.407324 0.418087
vt 0.539766 0.139257
vt 0.538935 0.269921
vt 0.473188 0.334837
vt 0.474849 0.073510
vt 0.409933 0.007763
vt 0.586403 0.503706
vt 0.977456 0.993195
vt 0.017943 0.005271
vn 0.000000 1.000000 0.000000
vn 0.000000 0.980531 0.196366
vn 0.000000 0.937425 0.348187
vn 0.000000 1.000000 0.000000
vn 0.000000 0.780869 0.624695
vn 0.000000 0.780869 0.624695
vn 1.000000 0.000000 0.000000
vn 1.000000 0.000000 0.000000
vn 1.000000 0.000000 0.000000
vn 1.000000 0.000000 0.000000
vn 1.000000 0.000000 0.000000
vn 1.000000 0.000000 0.000000
vn 0.000000 -1.000000 0.000000
vn 0.000000 -1.000000 0.000000
vn 0.000000 -1.000000 0.000000
vn 0.000000 -1.000000 0.000000
vn 0.000000 -1.000000 0.000000
vn 0.000000 -1.000000 0.000000
vn 0.000000 0.000000 1.000000
vn 0.000000 0.000000 1.000000
vn 0.000000 0.000000 1.000000
vn 0.000000 0.000000 1.000000
vn 0.000000 0.000000 -1.000000
vn 0.000000 0.000000 -1.000000
vn 0.000000 0.000000 -1.000000
vn 0.000000 0.000000 -1.000000
vn 0.000000 0.000000 1.000000
vn 0.000000 0.000000 1.000000
vn 0.000000 0.000000 1.000000
vn 0.000000 0.000000 1.000000
vn 0.000000 0.000000 1.000000
vn 0.000000 0.000000 1.000000
vn 0.000000 1.000000 0.000000
vn 0.348187 0.937425 0.000000
vn 0.196366 0.980531 0.000000
vn 0.000000 1.000000 0.000000
vn 0.624695 0.780869 0.000000
vn 0.624695 0.780869 0.000000
vn 0.000000 -1.000000 0.000000
vn 0.000000 -1.000000 0.000000
vn 0.000000 -1.000000 0.000000
vn 0.000000 -1.000000 0.000000
vn 0.000000 -1.000000 0.000000
vn 0.000000 -1.000000 0.000000
vn 1.000000 0.000000 0.000000
vn 1.000000 0.000000 0.000000
vn 1.000000 0.000000 0.000000
vn 1.000000 0.000000 0.000000
vn -1.000000 0.000000 0.000000
vn -1.000000 0.000000 0.000000
vn -1.000000 0.000000 0.000000
vn -1.000000 0.000000 0.000000
s 1
g Outside_Corner_LP
usemtl initialShadingGroup
f 4/34/1 5/35/2 8/30/3 7/27/4
f 5/35/2 6/32/5 9/6/6 8/30/3
s 2
f 7/4/7 8/3/8 11/29/9 10/28/10
f 8/3/8 9/25/11 12/26/12 11/29/9
s 3
f 10/8/13 11/7/14 2/36/15 1/33/16
f 11/7/14 12/40/17 3/37/18 2/36/15
s off
f 3/31/19 12/9/20 9/6/21 6/32/22
f 10/8/23 1/33/24 4/34/25 7/27/26
s 4
f 13/21/27 14/24/28 17/23/29 16/22/30
f 14/24/28 15/19/31 18/20/32 17/23/29
s 5
f 16/16/33 17/15/34 5/2/35 4/1/36
f 17/15/34 18/18/37 6/5/38 5/2/35
s 6
f 1/11/39 2/10/40 14/14/41 13/13/42
f 2/10/40 3/38/43 15/17/44 14/14/41
s off
f 15/39/45 3/12/46 6/5/47 18/18/48
f 1/11/49 13/13/50 16/16/51 4/1/52
